PathFileType	4	(X/Y/Z)	Walk7.trc
DataRate	CameraRate	NumFrames	NumMarkers	Units	OrigDataRate	OrigDataStartFrame	OrigNumFrames
200.000000	200.000000	8	60	mm	200.000000	749	829
Frame#	Times		RCAR		LTH3		RTH2		LBHD		LUA1		LWRU		RFA1		LFA1		LCAR		RTB3		LElbow		RToe		RTB2		RBHD		LElbowM		LTH2		C7		RPSI		RWRU		LWRR		RMT1		RMT5		RTB1		STRN		RLFC		RElbow		CLAV		T10		RBack		LPSI		LASI		LTH4		RLMAL		LLFC		LACR1		RUA1		LTB3		LTB4		RMMAL		LCAL		RTH3		LFHD		RElbowM		RCAL		LTB1		RACR1		RTH1		LTB2		LMMAL		RTH4		LMFC		RWRR		LMT5		RFHD		LLMAL		RASI		RTB4		LToe		LMT1		LTH1
			X1	Y1	Z1	X2	Y2	Z2	X3	Y3	Z3	X4	Y4	Z4	X5	Y5	Z5	X6	Y6	Z6	X7	Y7	Z7	X8	Y8	Z8	X9	Y9	Z9	X10	Y10	Z10	X11	Y11	Z11	X12	Y12	Z12	X13	Y13	Z13	X14	Y14	Z14	X15	Y15	Z15	X16	Y16	Z16	X17	Y17	Z17	X18	Y18	Z18	X19	Y19	Z19	X20	Y20	Z20	X21	Y21	Z21	X22	Y22	Z22	X23	Y23	Z23	X24	Y24	Z24	X25	Y25	Z25	X26	Y26	Z26	X27	Y27	Z27	X28	Y28	Z28	X29	Y29	Z29	X30	Y30	Z30	X31	Y31	Z31	X32	Y32	Z32	X33	Y33	Z33	X34	Y34	Z34	X35	Y35	Z35	X36	Y36	Z36	X37	Y37	Z37	X38	Y38	Z38	X39	Y39	Z39	X40	Y40	Z40	X41	Y41	Z41	X42	Y42	Z42	X43	Y43	Z43	X44	Y44	Z44	X45	Y45	Z45	X46	Y46	Z46	X47	Y47	Z47	X48	Y48	Z48	X49	Y49	Z49	X50	Y50	Z50	X51	Y51	Z51	X52	Y52	Z52	X53	Y53	Z53	X54	Y54	Z54	X55	Y55	Z55	X56	Y56	Z56	X57	Y57	Z57	X58	Y58	Z58	X59	Y59	Z59	X60	Y60	Z60

749	3.745	836.24	895.27	309.08	682.02	616.02	-139.05	628.9	680.58	190.56	547.65	1630.1	-67.159	519.59	1278.8	-247.6	472.06	844.43	-253.66	685.91	1001.6	328.56	464.05	978.53	-265.2	531.47	788.54	-255.1	342.73	221.15	134.63	470.38	1128.9	-259.68	354	31.281	153.13	383.15	299.91	203.09	560.21	1639.8	74.37	438.94	1128.4	-188.62	719.11	727.49	-133	526.16	1503.1	9.6633	431.1	1011	70.193	768.37	893.74	314.45	538.97	843.8	-204.51	313.02	40.802	129.1	265.09	50.016	202.35	474.42	352.34	149.29	706.88	1244.4	1.9051	501.71	488.26	210.98	605.15	1135.1	319.41	658.05	1416.6	3.7377	422.57	1278.6	20.101	460.68	1417.1	151.04	427.7	1006.4	-7.5715	638.04	1026.3	-119.57	654.92	703.73	-155.09	225.56	155.66	173.46	701.71	516.98	-129.38	587.86	1451.8	-162.67	612.59	1290.6	270.07	749.96	199.36	-51.015	755.04	295.48	-50.203	271.63	152.56	96.489	648.82	28.313	-51.641	542.37	599.32	212.98	727.92	1673.9	-41.131	570.98	1108.2	248.6	166.13	160.31	118.98	759.67	385.44	-51.464	615.25	1456.2	164.48	575.48	786.54	218.04	733.77	296.89	-122.83	735.28	90.499	-12.842	561.97	691.41	218.82	714.42	525.46	0.13503	809.9	927.69	256.92	806.45	21.94	-128.95	734.34	1678	35.162	708.05	69.093	-93.938	645.6	1029	162.78	409.01	285.97	139.7	907.95	31.22	-60.817	855.4	39.15	-45.024	629.87	792.57	-167.49
750	3.75	837.89	894.06	308.97	686.02	616.28	-139.82	637.21	681.14	190.39	552.53	1630.7	-68.529	525.81	1279.1	-248.87	480.32	844.65	-254.98	688.29	1001.7	327.55	471.74	978.65	-266.62	540	789	-255.77	350.21	223.26	135.01	477.28	1129.1	-261.2	356.19	31.964	153.55	391.44	301.6	203.28	565.08	1640.6	72.988	445.4	1128.4	-190.33	723.86	727.49	-133.92	531.01	1503.6	8.4171	436.47	1011.3	69.155	770.02	893.04	313.86	546.66	844.31	-205.12	316.05	41.889	129.32	268.72	52.925	202.31	483.58	352.36	150.2	712.06	1245.2	1.0204	512.08	487.91	211.27	608.56	1135.8	317.88	663.01	1417.4	2.6954	427.77	1279	18.965	465.52	1417.8	149.84	433.27	1006.9	-8.6556	643.62	1027.2	-120.66	659.52	704.17	-155.93	231.84	159.64	173.44	705.14	517.03	-130.02	593.07	1452.4	-163.74	616.83	1291.3	268.77	751	199.11	-51.134	756.89	295.21	-50.495	278.27	155.48	96.809	648.79	28.293	-51.701	551.71	598.88	213.14	732.77	1674.5	-42.568	574.66	1109.2	246.68	172.92	165.76	118.6	762.29	385.14	-51.947	620	1457	163.35	582.48	786.51	217.57	735.66	296.67	-123.11	735.41	90.467	-12.793	570.17	691.22	218.72	718.27	525.62	-0.57078	812.06	926.7	256.72	806.42	22.021	-129.01	739.23	1678.7	33.703	708.13	69.109	-93.899	651.17	1029.9	161.48	417.31	287.17	140.18	908.05	31.163	-60.84	855.41	39.256	-45.056	635.07	793.15	-168.41
751	3.755	839.45	892.82	308.88	689.73	616.47	-140.59	645.5	681.78	190.29	557.38	1631.3	-69.853	532.03	1279.5	-250.14	488.71	844.9	-256.28	690.62	1001.8	326.56	479.51	978.79	-268.05	548.68	789.54	-256.45	357.93	225.39	135.34	484.2	1129.3	-262.74	358.99	32.797	154.04	399.94	303.3	203.43	569.93	1641.5	71.652	451.89	1128.5	-192.06	728.43	727.4	-134.89	535.84	1504.2	7.2034	441.79	1011.6	68.094	771.57	892.34	313.26	554.52	844.91	-205.76	319.63	43.183	129.58	272.86	55.955	202.31	492.84	352.41	151.11	717.22	1246	0.17583	522.5	487.62	211.53	611.96	1136.4	316.37	667.95	1418.2	1.692	432.95	1279.5	17.835	470.31	1418.5	148.66	438.79	1007.5	-9.7549	649.17	1028.1	-121.69	663.89	704.56	-156.76	238.45	163.55	173.39	708.31	517.03	-130.66	598.27	1453	-164.78	621.03	1292	267.5	751.97	198.86	-51.288	758.62	294.92	-50.819	285.2	158.36	97.081	648.75	28.265	-51.755	561.04	598.51	213.28	737.6	1675.2	-43.964	578.33	1110.1	244.76	180.02	171.02	118.22	764.75	384.84	-52.463	624.69	1457.9	162.26	589.43	786.52	217.13	737.36	296.43	-123.41	735.53	90.436	-12.759	578.33	691.09	218.64	721.81	525.71	-1.2792	814.14	925.69	256.54	806.39	22.094	-129.06	744.09	1679.4	32.286	708.17	69.12	-93.869	656.63	1030.8	160.27	425.78	288.4	140.58	908.1	31.16	-60.871	855.4	39.367	-45.089	640.1	793.69	-169.34
752	3.76	840.94	891.57	308.79	693.17	616.61	-141.34	653.75	682.5	190.24	562.2	1632	-71.13	538.26	1279.9	-251.39	497.22	845.18	-257.56	692.9	1001.9	325.58	487.35	978.97	-269.47	557.52	790.16	-257.13	365.88	227.52	135.59	491.16	1129.5	-264.28	362.45	33.788	154.58	408.66	305	203.53	574.76	1642.4	70.363	458.41	1128.6	-193.81	732.81	727.22	-135.89	540.65	1504.8	6.0223	447.08	1011.9	67.013	773.03	891.64	312.67	562.54	845.58	-206.43	323.79	44.672	129.91	277.53	59.077	202.37	502.19	352.5	152	722.34	1246.9	-0.62824	532.92	487.42	211.74	615.33	1137	314.88	672.86	1419	0.72805	438.09	1280	16.71	475.06	1419.2	147.49	444.25	1008.2	-10.865	654.68	1029	-122.66	668.05	704.91	-157.58	245.39	167.37	173.32	711.24	517	-131.3	603.46	1453.6	-165.79	625.18	1292.6	266.27	752.88	198.6	-51.476	760.26	294.63	-51.178	292.41	161.2	97.292	648.7	28.233	-51.805	570.35	598.21	213.42	742.41	1675.8	-45.315	582.01	1111.1	242.85	187.41	176.03	117.83	767.07	384.52	-53.012	629.35	1458.7	161.21	596.31	786.58	216.73	738.89	296.18	-123.71	735.64	90.407	-12.737	586.43	691.03	218.57	725.04	525.74	-1.9868	816.13	924.67	256.38	806.36	22.156	-129.1	748.92	1680.2	30.913	708.18	69.127	-93.847	661.97	1031.7	159.17	434.41	289.68	140.9	908.12	31.192	-60.91	855.38	39.477	-45.123	644.98	794.2	-170.25
753	3.765	842.36	890.3	308.71	696.4	616.7	-142.08	661.95	683.3	190.25	567	1632.6	-72.357	544.48	1280.4	-252.64	505.84	845.48	-258.82	695.15	1002	324.63	495.26	979.18	-270.9	566.49	790.86	-257.81	374.06	229.64	135.77	498.13	1129.7	-265.82	366.6	34.938	155.15	417.56	306.69	203.59	579.56	1643.2	69.121	464.94	1128.7	-195.58	737.03	726.97	-136.9	545.43	1505.4	4.8742	452.32	1012.3	65.916	774.41	890.97	312.11	570.72	846.33	-207.12	328.57	46.337	130.28	282.76	62.253	202.46	511.6	352.65	152.87	727.42	1247.8	-1.3922	543.33	487.31	211.91	618.67	1137.7	313.41	677.74	1419.8	-0.19626	443.2	1280.5	15.593	479.76	1419.9	146.32	449.65	1008.9	-11.981	660.16	1029.9	-123.55	672.02	705.21	-158.38	252.65	171.07	173.21	713.98	516.94	-131.93	608.63	1454.3	-166.76	629.28	1293.3	265.08	753.74	198.35	-51.698	761.82	294.33	-51.568	299.9	163.97	97.436	648.65	28.199	-51.849	579.59	598.01	213.54	747.18	1676.5	-46.62	585.68	1112.2	240.96	195.08	180.77	117.44	769.26	384.19	-53.593	633.96	1459.6	160.21	603.12	786.7	216.35	740.27	295.93	-124.02	735.74	90.381	-12.729	594.47	691.04	218.51	727.99	525.72	-2.6888	818.05	923.63	256.24	806.33	22.204	-129.14	753.73	1681	29.588	708.16	69.133	-93.835	667.19	1032.6	158.18	443.17	291	141.13	908.12	31.246	-60.956	855.34	39.581	-45.158	649.7	794.68	-171.14
754	3.77	843.71	889.02	308.65	699.45	616.76	-142.81	670.09	684.2	190.32	571.76	1633.3	-73.535	550.71	1280.9	-253.87	514.56	845.81	-260.05	697.36	1002.1	323.71	503.23	979.41	-272.32	575.6	791.62	-258.5	382.46	231.75	135.88	505.13	1130	-267.37	371.47	36.237	155.76	426.64	308.37	203.6	584.34	1644.1	67.93	471.5	1128.9	-197.37	741.1	726.68	-137.91	550.2	1506.1	3.7599	457.53	1012.7	64.806	775.72	890.31	311.56	579.05	847.14	-207.85	333.98	48.146	130.68	288.56	65.445	202.6	521.06	352.87	153.68	732.48	1248.6	-2.1166	553.72	487.31	212.04	622	1138.3	311.97	682.61	1420.6	-1.0815	448.28	1281	14.483	484.43	1420.7	145.17	454.99	1009.6	-13.099	665.6	1030.8	-124.38	675.83	705.47	-159.16	260.23	174.62	173.06	716.54	516.86	-132.54	613.8	1455	-167.69	633.33	1294	263.94	754.56	198.1	-51.951	763.3	294.03	-51.987	307.66	166.67	97.51	648.59	28.164	-51.89	588.77	597.91	213.62	751.93	1677.1	-47.877	589.35	1113.2	239.11	203.02	185.19	117.04	771.36	383.85	-54.201	638.54	1460.5	159.26	609.85	786.9	215.99	741.51	295.69	-124.35	735.82	90.357	-12.732	602.43	691.14	218.45	730.66	525.68	-3.3794	819.9	922.58	256.12	806.3	22.238	-129.18	758.51	1681.7	28.312	708.12	69.139	-93.831	672.29	1033.5	157.3	452.07	292.35	141.28	908.11	31.313	-61.006	855.3	39.674	-45.194	654.27	795.12	-172.01
755	3.775	844.99	887.73	308.59	702.35	616.8	-143.52	678.15	685.2	190.42	576.5	1634	-74.663	556.94	1281.4	-255.08	523.38	846.17	-261.25	699.53	1002.2	322.81	511.26	979.67	-273.73	584.84	792.45	-259.21	391.07	233.82	135.9	512.16	1130.3	-268.92	377.06	37.664	156.37	435.89	310.04	203.57	589.1	1645	66.789	478.07	1129	-199.16	745.03	726.36	-138.91	554.95	1506.7	2.68	462.7	1013.1	63.689	776.97	889.67	311.06	587.52	848.02	-208.61	340.03	50.061	131.11	294.92	68.606	202.76	530.56	353.17	154.44	737.51	1249.5	-2.8027	564.06	487.44	212.11	625.3	1139	310.56	687.46	1421.5	-1.9285	453.33	1281.5	13.383	489.05	1421.4	144.03	460.27	1010.3	-14.214	671	1031.7	-125.14	679.49	705.7	-159.92	268.13	177.99	172.87	718.97	516.77	-133.14	618.95	1455.7	-168.59	637.32	1294.6	262.85	755.34	197.86	-52.228	764.73	293.73	-52.43	315.7	169.27	97.516	648.52	28.132	-51.927	597.86	597.92	213.68	756.66	1677.8	-49.085	593.02	1114.2	237.29	211.23	189.28	116.63	773.36	383.51	-54.829	643.08	1461.4	158.37	616.5	787.18	215.66	742.64	295.44	-124.68	735.9	90.338	-12.745	610.31	691.35	218.38	733.1	525.61	-4.0524	821.69	921.53	256.01	806.27	22.257	-129.22	763.27	1682.5	27.086	708.07	69.148	-93.834	677.26	1034.3	156.54	461.09	293.75	141.35	908.08	31.384	-61.059	855.24	39.755	-45.229	658.71	795.54	-172.85
756	3.78	846.2	886.44	308.54	705.16	616.83	-144.21	686.12	686.3	190.55	581.22	1634.7	-75.74	563.18	1282	-256.28	532.29	846.54	-262.43	701.67	1002.4	321.93	519.34	979.96	-275.14	594.19	793.35	-259.92	399.91	235.83	135.86	519.22	1130.6	-270.47	383.36	39.191	156.98	445.28	311.68	203.49	593.83	1645.9	65.7	484.68	1129.1	-200.96	748.85	726.03	-139.88	559.7	1507.4	1.635	467.84	1013.6	62.571	778.16	889.06	310.6	596.13	848.96	-209.4	346.71	52.042	131.55	301.86	71.694	202.92	540.11	353.57	155.11	742.5	1250.3	-3.4521	574.34	487.71	212.13	628.59	1139.6	309.18	692.29	1422.3	-2.7388	458.35	1282.1	12.293	493.63	1422.1	142.89	465.49	1011.1	-15.322	676.36	1032.6	-125.84	683.03	705.91	-160.65	276.35	181.17	172.65	721.28	516.67	-133.72	624.1	1456.4	-169.45	641.26	1295.3	261.81	756.09	197.62	-52.525	766.1	293.43	-52.887	324.03	171.75	97.459	648.46	28.103	-51.959	606.86	598.06	213.69	761.36	1678.5	-50.244	596.66	1115.2	235.52	219.71	193.01	116.2	775.28	383.18	-55.469	647.59	1462.2	157.52	623.07	787.56	215.35	743.67	295.21	-125.03	735.97	90.324	-12.767	618.09	691.66	218.3	735.34	525.54	-4.7015	823.41	920.46	255.9	806.24	22.262	-129.25	768	1683.3	25.91	708	69.161	-93.843	682.11	1035.2	155.89	470.24	295.16	141.36	908.04	31.454	-61.114	855.19	39.823	-45.263	663.02	795.94	-173.67
